<?xml version="1.0" encoding="UTF-8" standalone="no"?>
<!-- Created with Inkscape (http://www.inkscape.org/) -->

<svg
   width="96.800957mm"
   height="96.567749mm"
   viewBox="0 0 96.800957 96.567749"
   version="1.1"
   id="svg5"
   sodipodi:docname="logo.svg"
   inkscape:version="1.2.2 (b0a8486541, 2022-12-01)"
   inkscape:export-filename="logo.png"
   inkscape:export-xdpi="150"
   inkscape:export-ydpi="150"
   xmlns:inkscape="http://www.inkscape.org/namespaces/inkscape"
   xmlns:sodipodi="http://sodipodi.sourceforge.net/DTD/sodipodi-0.dtd"
   xmlns="http://www.w3.org/2000/svg"
   xmlns:svg="http://www.w3.org/2000/svg">
  <sodipodi:namedview
     id="namedview7"
     pagecolor="#ffffff"
     bordercolor="#666666"
     borderopacity="1.0"
     inkscape:showpageshadow="2"
     inkscape:pageopacity="0.0"
     inkscape:pagecheckerboard="0"
     inkscape:deskcolor="#d1d1d1"
     inkscape:document-units="mm"
     showgrid="false"
     inkscape:zoom="0.76746984"
     inkscape:cx="177.20566"
     inkscape:cy="-193.49295"
     inkscape:window-width="3840"
     inkscape:window-height="2130"
     inkscape:window-x="0"
     inkscape:window-y="0"
     inkscape:window-maximized="1"
     inkscape:current-layer="layer1" />
  <defs
     id="defs2" />
  <g
     inkscape:label="Layer 1"
     inkscape:groupmode="layer"
     id="layer1"
     transform="translate(-57.491366,-92.190711)">
    <ellipse
       style="color:#000000;overflow:visible;fill:#752f03;fill-opacity:1;stroke:none;stroke-width:0.201245;stroke-opacity:1;stop-color:#000000"
       id="path234-6-5"
       cx="105.68826"
       cy="140.43756"
       rx="48.055981"
       ry="48.156677" />
    <path
       id="path234-5"
       style="color:#000000;overflow:visible;fill:#87cdde;stroke:none;stroke-width:0.203893;stop-color:#000000"
       d="m 100.27831,92.190711 a 48.484208,48.995843 0 0 0 -42.786944,48.623109 48.484208,48.995843 0 0 0 8.270934,27.35216 59.978252,65.540645 0 0 0 36.29111,-60.16411 59.978252,65.540645 0 0 0 -1.7751,-15.811159 z" />
    <path
       id="path234-5-5"
       style="color:#000000;overflow:visible;fill:#87cdde;stroke:none;stroke-width:0.203;stop-color:#000000"
       d="m 111.46857,92.4679 a 48.525909,48.525909 0 0 1 42.82375,48.15675 48.525909,48.525909 0 0 1 -8.27805,27.08982 60.029839,64.912025 0 0 1 -36.32233,-59.58706 60.029839,64.912025 0 0 1 1.77663,-15.65951 z" />
    <g
       aria-label="M"
       id="text4030-1"
       style="font-size:25.4px;line-height:12.7px;-inkscape-font-specification:sans-serif;letter-spacing:0px;word-spacing:0px;stroke:#000000;stroke-width:0.264583px">
      <path
         d="m 123.91773,146.77264 v -15.8242 h 1.397 l 3.9116,7.747 3.9878,-7.7724 h 1.3462 v 15.8496 h -1.6764 v -11.938 l -3.429,6.3754 h -0.6858 l -3.2004,-6.2992 v 11.8618 z"
         style="font-family:Inconsolata;-inkscape-font-specification:Inconsolata"
         id="path12246" />
    </g>
    <g
       aria-label="A"
       transform="scale(1.0044405,0.99557914)"
       id="text2520"
       style="font-size:57.5819px;line-height:28.791px;font-family:Inconsolata;-inkscape-font-specification:Inconsolata;letter-spacing:0px;word-spacing:0px;fill:#c4845c;stroke:#000000;stroke-width:1.79943px;fill-opacity:1">
      <path
         d="m 114.62959,149.55803 -3.62766,-10.47991 H 99.427967 l -3.62766,10.47991 H 91.827156 L 105.07099,113.0511 h 0.46066 l 13.24384,36.50693 z m -9.38585,-27.29382 -4.72172,13.70449 h 9.44344 z"
         id="path11517"
         style="fill:#c4845c;fill-opacity:1" />
    </g>
    <path
       id="path234"
       style="color:#000000;overflow:visible;opacity:1;fill:#8dd35f;stroke:none;stroke-width:0.203;stop-color:#000000"
       d="m 106.12448,147.09744 a 48.525909,48.525909 0 0 0 -39.937608,20.97908 48.525909,48.525909 0 0 0 39.718508,20.68194 48.525909,48.525909 0 0 0 39.94846,-20.99303 48.525909,48.525909 0 0 0 -39.72936,-20.66799 z" />
    <g
       aria-label="ST"
       id="text4030"
       style="font-size:25.4px;line-height:12.7px;-inkscape-font-specification:sans-serif;letter-spacing:0px;word-spacing:0px;stroke:#000000;stroke-width:0.264583px">
      <path
         d="m 75.651203,147.05515 q -3.0734,0 -4.953,-2.0066 l 0.9144,-1.6002 0.1016,-0.2286 0.1778,0.1016 q 0.0508,0.1778 0.127,0.4064 0.0762,0.2032 0.3556,0.508 0.6604,0.5588 1.524,0.889 0.889,0.3302 2.0066,0.3302 1.4224,0 2.3368,-0.7874 0.9398,-0.8128 0.9398,-1.9304 0,-0.7366 -0.3048,-1.2446 -0.2794,-0.508 -1.0668,-0.9906 -0.762,-0.4826 -2.2606,-1.1176 -2.4638,-0.9652 -3.4036,-2.159 -0.9398,-1.1938 -0.9398,-2.54 0,-1.7526 1.2954,-2.8194 1.2954,-1.0922 3.5306,-1.0922 1.2954,0 2.4384,0.5334 1.143,0.508 1.9558,1.4478 l -1.143,1.524 -0.1524,-0.1016 q -0.0254,-0.2032 -0.1016,-0.4064 -0.0762,-0.2032 -0.3556,-0.508 -0.6096,-0.5842 -1.2954,-0.7874 -0.6858,-0.2286 -1.6256,-0.2286 -1.2446,0 -1.9812,0.6858 -0.7366,0.6858 -0.7366,1.6256 0,0.7112 0.3048,1.27 0.3302,0.5334 1.1684,1.0668 0.8382,0.5334 2.4384,1.1684 1.5494,0.635 2.413,1.2954 0.8636,0.635 1.2192,1.397 0.3556,0.7366 0.3556,1.7272 0,1.0922 -0.5588,2.159 -0.5334,1.0414 -1.7018,1.7272 -1.1684,0.6858 -3.0226,0.6858 z"
         style="font-family:Inconsolata;-inkscape-font-specification:Inconsolata"
         id="path11512" />
      <path
         d="m 87.360603,146.80115 v -14.2494 h -4.4958 v -1.6002 h 10.9728 v 1.6002 h -4.6736 v 14.2494 z"
         style="font-family:Inconsolata;-inkscape-font-specification:Inconsolata"
         id="path11514" />
    </g>
  </g>
</svg>
